<?xml version="1.0" standalone="no"?>
<!DOCTYPE svg PUBLIC "-//W3C//DTD SVG 20010904//EN"
 "http://www.w3.org/TR/2001/REC-SVG-20010904/DTD/svg10.dtd">
<svg version="1.0" xmlns="http://www.w3.org/2000/svg"
 width="261.000000pt" height="261.000000pt" viewBox="0 0 261.000000 261.000000"
 preserveAspectRatio="xMidYMid meet">
<metadata>
Created by potrace 1.14, written by Peter Selinger 2001-2017
</metadata>
<g transform="translate(0.000000,261.000000) scale(0.100000,-0.100000)"
fill="#000000" stroke="none">
<path d="M1155 2554 c-299 -46 -514 -148 -717 -342 -186 -178 -301 -380 -361
-637 -17 -74 -21 -122 -21 -270 0 -199 14 -281 73 -446 120 -329 417 -620 751
-737 155 -54 237 -67 430 -66 194 0 279 15 441 73 329 120 620 417 737 751 53
153 67 238 67 425 0 187 -14 272 -67 425 -117 334 -408 631 -737 751 -146 53
-240 70 -411 74 -85 2 -168 1 -185 -1z m483 -1102 l-3 -427 -33 -67 c-60 -123
-156 -180 -313 -186 -161 -7 -273 42 -335 146 -30 50 -60 164 -48 183 3 5 54
9 113 9 l108 0 7 -42 c9 -56 30 -86 71 -104 73 -30 153 -6 187 57 17 31 18 66
18 446 l0 413 115 0 116 0 -3 -428z"/>
</g>
</svg>
