
<svg viewBox="0 0 101 101" version="1.1" xmlns="http://www.w3.org/2000/svg" xmlns:xlink="http://www.w3.org/1999/xlink" xml:space="preserve">
<g>
<path d="M98.587,84.042l-95.918,0c-1.127,0 -2.041,-0.914 -2.041,-2.041l0,-63.367c0,-1.127 0.914,-2.041 2.041,-2.041l95.918,0c1.127,0 2.041,0.914 2.041,2.041l0,63.367c0,1.127 -0.914,2.041 -2.041,2.041Zm-93.877,-4.082l91.836,0l0,-59.285l-91.836,0l0,59.285Z" />
<path d="M50.628,58.712c-0.425,0 -0.85,-0.133 -1.21,-0.398l-38.863,-28.623c-0.908,-0.669 -1.102,-1.946 -0.433,-2.854c0.668,-0.907 1.946,-1.101 2.853,-0.433l37.653,27.732l37.653,-27.732c0.908,-0.668 2.186,-0.474 2.854,0.433c0.668,0.908 0.474,2.185 -0.433,2.854l-38.864,28.623c-0.36,0.265 -0.785,0.398 -1.21,0.398Z" />
</g></svg>